# xmcd
#
# Track frame offsets: 
#        150
#        6826
#        18602
#        36862
#        58684
#        78441
#        94005
#        118671
#        139348
#        152686
#        164898
#        176608
#        188480
#        202883
#        215258
#
# Disc length: 3203 seconds
#
# Revision: 0
# Processed by: cddbd v1.5.2PL0 Copyright (c) Steve Scherf et al.
# Submitted via: ExactAudioCopy v0.99pb3
#
DISCID=c90c810f
DTITLE=Thy Burden - Cochecton Hills (Epic Ballads of Murder and Whiske
DTITLE=y) [CD]
DYEAR=2009
DGENRE=Alt-Country
TTITLE0=The Doctor's Orders
TTITLE1=Cochecton Hills
TTITLE2='Neath the Wild Oak
TTITLE3=The Property Dispute
TTITLE4=Whiskey Drinkin' Night
TTITLE5=Pappy Johnson
TTITLE6=Alone on the Highway Tonight
TTITLE7=Toothless Hanna
TTITLE8=Westbound Rail
TTITLE9=Howlin' to the Train
TTITLE10=River Delaware
TTITLE11=Rebels Lament
TTITLE12=No Escape From Livin'
TTITLE13=Willy Welfel
TTITLE14=Bright Morning Star
EXTD=
EXTT0=
EXTT1=
EXTT2=
EXTT3=
EXTT4=
EXTT5=
EXTT6=
EXTT7=
EXTT8=
EXTT9=
EXTT10=
EXTT11=
EXTT12=
EXTT13=
EXTT14=
PLAYORDER=
